<?xml version="1.0" standalone="no"?>
<!DOCTYPE svg PUBLIC "-//W3C//DTD SVG 20010904//EN"
 "http://www.w3.org/TR/2001/REC-SVG-20010904/DTD/svg10.dtd">
<svg version="1.0" xmlns="http://www.w3.org/2000/svg"
 width="700.000000pt" height="700.000000pt" viewBox="0 0 700.000000 700.000000"
 preserveAspectRatio="xMidYMid meet">
<metadata>
Created by potrace 1.14, written by Peter Selinger 2001-2017
</metadata>
<g transform="translate(0.000000,700.000000) scale(0.100000,-0.100000)"
fill="#000000" stroke="none">
<path d="M3 4353 c3 -841 7 -1541 10 -1558 7 -36 15 -92 22 -142 32 -231 116
-480 233 -690 75 -135 229 -316 362 -424 166 -135 382 -246 600 -311 36 -10
79 -23 95 -28 34 -10 171 -37 260 -51 206 -31 641 -33 835 -3 29 4 195 37 250
49 45 10 197 62 278 96 86 35 128 57 239 120 61 35 190 131 252 189 30 27 57
50 61 50 3 0 15 -10 26 -22 19 -21 79 -76 134 -122 23 -19 161 -107 215 -138
182 -102 490 -198 720 -224 33 -3 74 -8 90 -11 54 -8 478 -10 555 -3 158 17
195 21 210 25 8 2 35 7 60 10 24 4 47 8 50 10 3 2 21 6 40 9 74 11 279 76 379
120 484 211 802 594 941 1131 16 61 31 128 34 150 4 23 9 52 11 65 3 14 7 48
10 75 3 28 8 66 12 85 4 19 8 718 10 1553 l4 1517 -546 0 -545 0 -1 -1432 c-1
-788 -2 -1444 -4 -1458 -6 -89 -22 -202 -31 -232 -3 -10 -7 -30 -10 -45 -10
-57 -65 -203 -101 -268 -155 -279 -420 -408 -819 -400 -258 6 -456 76 -609
217 -127 117 -223 301 -260 500 -3 13 -7 34 -10 48 -6 31 -12 86 -21 170 -3
36 -6 703 -6 1483 l0 1417 -541 -2 -542 -3 -2 -1450 c-1 -797 -4 -1463 -6
-1480 -3 -16 -8 -55 -11 -85 -11 -81 -41 -207 -70 -282 -77 -206 -202 -349
-381 -437 -134 -66 -259 -92 -455 -95 -196 -4 -342 25 -485 94 -266 129 -412
387 -453 798 -5 46 -8 727 -8 1513 l1 1429 -543 0 -543 0 4 -1527z"/>
</g>
</svg>
